<svg width="336" height="177" viewBox="0 0 336 177" fill="none" xmlns="http://www.w3.org/2000/svg">
<path d="M165.545 46.0434L140.811 14.0769C140.811 14.0769 137.948 6.09483 122.64 6.84224C111.102 7.40623 73.9316 7.31397 56.8489 8.70279C48.3875 9.38759 47.69 8.38647 38.3033 21.1698C26.4903 37.2601 0 80.3455 0 80.3455C0 80.3455 16.1046 92.2007 31.8765 74.1542C42.6339 61.8399 50.7121 51.5289 55.2311 44.6046C59.0631 38.722 86.5128 46.665 86.5128 46.665C86.5128 46.665 120.576 48.4904 125.794 58.5203C136.865 79.815 187.032 96.1783 187.032 96.1783C190.365 91.2886 188.392 62.8559 165.545 46.0434Z" fill="#E6AC84"/>
<path d="M169.272 28.4543L130.833 6.15245C130.833 6.15245 124.606 -0.742784 109.327 6.12938C97.8025 11.3173 59.8947 26.0979 43.0668 34.3325C34.7339 38.4062 33.6103 37.6747 29.3417 54.3032C23.967 75.2393 14.8318 129.236 14.8318 129.236C14.8318 129.236 36.1408 134.732 44.734 110.25C50.5958 93.5395 54.5513 79.922 56.2905 71.1366C57.7606 63.6812 89.0138 60.7031 89.0138 60.7031C89.0138 60.7031 124.471 48.9088 133.942 56.926C154.036 73.9455 183.627 107.644 183.627 107.644C184.995 101.384 199.505 36.2513 169.272 28.4543Z" fill="#F2BA8B"/>
<path d="M169.999 13.676L125.84 1.29245C125.84 1.29245 117.844 -3.99429 104.344 6.817C94.1653 14.9654 60.095 39.5051 45.4006 52.0676C38.1264 58.288 36.8101 57.8464 36.8321 75.5661C36.8551 97.8697 41.6367 154.184 41.6367 154.184C41.6367 154.184 64.3509 154.184 66.6294 127.503C68.1797 109.293 68.6267 94.6664 68.0962 85.4433C67.6437 77.6112 98.1055 66.5819 98.1055 66.5819C98.1055 66.5819 108.308 62.4973 119.832 68.0696C144.302 79.8985 145.085 112.553 145.085 112.553L204.748 89.1089C204.505 82.5042 202.223 13.676 169.999 13.676Z" fill="#FBC69A"/>
<path d="M263.611 27.088C263.611 27.088 230.391 14.7424 217.153 13.3404C201.503 11.6836 120.792 0.00134277 120.792 0.00134277L167.127 93.8586C167.127 93.8586 117.147 130.202 111.829 144.738C106.514 159.275 107.745 177.415 111.992 176.119C116.225 174.82 183.277 134.611 204.748 126.27C216.775 121.595 259.72 104.594 259.72 104.594H294.7L294.697 27.0869H263.611V27.088Z" fill="#FBC69A"/>
<path d="M278.889 124.555L307.046 124.336L308.819 13.6935L280.658 13.9016L278.889 124.555Z" fill="#D0D2D3"/>
<path d="M279.726 69.1211L307.879 68.9064L308.76 13.8796L280.604 14.0867L279.726 69.1211Z" fill="#F0F1F1"/>
<path d="M303.494 8.28699L301.583 129.074L335.813 129.163V8.37101L303.494 8.28699Z" fill="#221F1F"/>
<path d="M325.579 107.355C322.592 106.68 319.639 108.544 318.965 111.513C318.282 114.494 320.154 117.444 323.123 118.126C326.104 118.807 329.06 116.933 329.74 113.963C330.415 110.996 328.547 108.036 325.579 107.355Z" fill="#F0F1F1"/>
<path d="M303.494 8.28699L302.554 68.6818L335.813 68.768V8.37101L303.494 8.28699Z" fill="#403F41"/>
</svg>
