<svg width="769" height="415" viewBox="0 0 769 415" fill="none" xmlns="http://www.w3.org/2000/svg">
<g clip-path="url(#clip0_120_2166)">
<rect width="768" height="415" transform="translate(0.5)" fill="#46D3FF"/>
<path d="M428.348 129.194C422.351 125.582 416.276 122.128 409.968 119.165C337.171 84.9586 218.934 115.651 207.213 205.566C204.42 226.997 211.064 246.607 213.38 267.721C218.649 315.743 199.137 358.669 199.635 405.884C200.023 442.483 223.439 475.012 250.405 497.923C279.707 522.819 310.594 533.667 348.578 532.814C391.162 531.857 421.086 505.933 450.545 478.489C463.794 466.146 477.473 453.451 493.569 444.893C513.719 434.178 536.251 427.802 557.081 418.506C578.744 408.839 599.805 396.553 615.124 378.394C664.18 320.243 620.969 219.062 562.645 182.164C542 169.103 517.822 164.201 494.595 158.411C469.522 152.161 450.534 142.562 428.348 129.194Z" fill="#99DAEF"/>
<path d="M567.594 214.255L561.047 136.995C560.642 132.222 558.099 127.888 554.129 125.207C550.158 122.526 545.188 121.786 540.609 123.195L464.004 146.766C455.645 149.339 450.953 158.201 453.525 166.56C456.097 174.92 464.957 179.611 473.32 177.04L506.228 166.915L383.049 329.809L304.799 327.438C300.05 327.308 295.498 329.287 292.38 332.864L194.822 444.825C189.076 451.42 189.764 461.423 196.359 467.17C199.36 469.785 203.066 471.066 206.756 471.066C211.174 471.066 215.572 469.227 218.702 465.634L311.334 359.324L390.266 361.717C395.38 361.85 400.282 359.532 403.377 355.438L533.219 183.732L536.032 216.929C536.733 225.19 543.653 231.429 551.795 231.429C552.243 231.429 552.695 231.411 553.149 231.372C561.866 230.635 568.333 222.971 567.594 214.255Z" fill="black" stroke="black" stroke-width="0.879838" stroke-miterlimit="10" stroke-linecap="round" stroke-linejoin="round"/>
<path d="M574.317 207.823L567.77 130.563C567.365 125.79 564.821 121.456 560.852 118.775C556.881 116.094 551.911 115.354 547.332 116.764L470.727 140.335C462.368 142.907 457.676 151.769 460.248 160.128C462.82 168.489 471.68 173.18 480.043 170.608L512.951 160.483L389.771 323.378L311.521 321.007C306.772 320.876 302.22 322.855 299.102 326.433L201.545 438.395C195.799 444.989 196.487 454.993 203.081 460.74C206.082 463.355 209.788 464.637 213.478 464.637C217.897 464.637 222.294 462.797 225.425 459.204L318.057 352.895L396.989 355.287C402.104 355.42 407.005 353.102 410.1 349.008L539.942 177.302L542.755 210.499C543.455 218.76 550.376 225 558.517 225C558.966 225 559.417 224.981 559.872 224.942C568.589 224.203 575.056 216.539 574.317 207.823Z" fill="#FFCE51" stroke="black" stroke-width="0.879838" stroke-miterlimit="10" stroke-linecap="round" stroke-linejoin="round"/>
<path d="M365.64 280.116L350.989 279.265L345.005 277.391C345.005 277.391 330.937 260.938 318.777 252.116C306.616 243.294 282.534 227.081 280.389 230.18C278.243 233.28 283.011 307.433 283.011 307.433C283.011 307.433 278.481 309.818 277.766 311.248C277.05 312.679 253.922 366.327 253.922 366.327C253.922 366.327 249.869 365.135 249.153 366.566C248.438 367.996 245.815 374.434 245.815 374.434L233.655 373.242C233.655 373.242 225.071 371.096 220.303 369.427C215.534 367.758 216.726 371.573 217.918 373.242C219.11 374.911 233.893 388.263 233.893 388.263L243.192 394.94C243.192 394.94 247.007 395.893 247.961 394.224C248.915 392.555 258.452 381.587 258.452 381.587C258.452 381.587 261.075 379.68 262.267 378.487C263.46 377.295 265.129 372.765 265.129 372.765L289.926 342.245L303.278 327.224H378.863C378.863 327.224 383.154 325.316 385.062 320.309C386.969 315.302 386.969 315.302 386.969 315.302L365.64 280.116ZM297.317 304.096L301.609 272.146L322.592 298.374L297.317 304.096Z" fill="black" stroke="black" stroke-width="0.879838" stroke-miterlimit="10" stroke-linecap="round" stroke-linejoin="round"/>
<path d="M457.702 210.042L441.125 218.428L436.834 227.594L457.312 227.399C457.312 227.399 462.383 216.478 462.578 213.162C462.774 209.848 457.702 210.042 457.702 210.042Z" fill="white" stroke="black" stroke-width="0.879838" stroke-miterlimit="10" stroke-linecap="round" stroke-linejoin="round"/>
<path d="M452.063 220.167C452.063 220.167 451.11 213.491 452.063 212.537C453.017 211.583 464.7 204.43 467.085 204.43C469.469 204.43 475.668 206.337 475.907 207.053C476.145 207.768 476.622 210.152 476.622 211.106C476.622 212.06 469.469 217.782 468.515 218.975C467.562 220.167 452.063 220.167 452.063 220.167Z" fill="white" stroke="black" stroke-width="0.879838" stroke-miterlimit="10" stroke-linecap="round" stroke-linejoin="round"/>
<path d="M429.833 237.197L438.845 236.856C438.845 236.856 450.917 220.534 453.468 217.643C456.018 214.752 462.989 208.631 470.641 207.611C478.292 206.591 479.313 210.331 479.313 211.691C479.313 213.052 471.832 226.314 468.431 233.455C465.03 240.597 461.63 244.847 460.78 246.548C459.93 248.248 450.918 264.061 449.218 266.951C447.517 269.842 437.656 277.153 436.296 278.854C434.936 280.554 424.224 297.047 417.592 302.318C410.961 307.589 399.569 312.69 399.569 312.69C399.569 312.69 394.298 316.431 391.237 317.961C388.177 319.491 384.776 319.151 383.586 318.641C382.397 318.131 373.044 310.31 367.944 301.978C362.842 293.646 362.842 281.234 363.183 280.043C363.523 278.853 366.414 276.982 367.264 276.813C368.114 276.643 376.785 274.432 376.785 274.432L383.756 269.33C383.756 269.33 384.267 266.61 384.947 265.76C385.627 264.91 399.57 249.607 399.57 249.607L404.841 243.486L417.253 240.255L429.833 237.197Z" fill="white" stroke="black" stroke-width="0.879838" stroke-miterlimit="10" stroke-linecap="round" stroke-linejoin="round"/>
<path d="M391.993 288.79C395.939 288.822 400.892 288.471 406.999 287.406" stroke="black" stroke-width="0.879838" stroke-miterlimit="10" stroke-linecap="round" stroke-linejoin="round"/>
<path d="M378.994 286.506C378.994 286.506 382.034 288.321 389.537 288.716" stroke="black" stroke-width="0.879838" stroke-miterlimit="10" stroke-linecap="round" stroke-linejoin="round"/>
<path d="M389.417 295.279C390.352 295.497 391.291 295.662 392.216 295.751" stroke="black" stroke-width="0.879838" stroke-miterlimit="10" stroke-linecap="round" stroke-linejoin="round"/>
<path d="M376.478 289.552C376.478 289.552 381.51 292.858 387.22 294.671" stroke="black" stroke-width="0.879838" stroke-miterlimit="10" stroke-linecap="round" stroke-linejoin="round"/>
<path d="M409.841 274.934C404.477 276.337 394.054 279.044 388.877 280.252" stroke="black" stroke-width="0.879838" stroke-miterlimit="10" stroke-linecap="round" stroke-linejoin="round"/>
<path d="M413.198 274.053C413.198 274.053 412.633 274.203 411.666 274.456" stroke="black" stroke-width="0.879838" stroke-miterlimit="10" stroke-linecap="round" stroke-linejoin="round"/>
<path d="M427.421 253.842C426.83 254.762 426.319 255.579 425.922 256.24" stroke="black" stroke-width="0.879838" stroke-miterlimit="10" stroke-linecap="round" stroke-linejoin="round"/>
<path d="M438.845 236.856C438.845 236.856 432.648 245.831 428.555 252.093" stroke="black" stroke-width="0.879838" stroke-miterlimit="10" stroke-linecap="round" stroke-linejoin="round"/>
<path d="M437.145 238.217C437.145 238.217 427.793 244.508 423.882 248.759" stroke="black" stroke-width="0.879838" stroke-miterlimit="10" stroke-linecap="round" stroke-linejoin="round"/>
<path d="M417.081 200.3C417.081 200.3 407.729 205.571 407.729 206.762C407.729 207.952 407.729 209.312 407.729 209.312C407.729 209.312 402.118 213.223 400.078 214.414C398.038 215.604 401.949 218.664 401.949 218.664L396.678 231.416C396.678 231.416 398.208 234.137 399.398 234.307C400.588 234.476 406.879 234.646 406.879 234.646L409.089 240.598L431.194 236.007L430.174 232.436C430.174 232.436 439.015 228.695 442.586 226.145C446.156 223.595 448.367 213.393 445.476 207.102C442.586 200.811 439.865 197.41 436.974 195.88C434.084 194.35 427.283 194.35 427.283 194.35C427.283 194.35 432.213 189.248 427.453 189.079C422.692 188.909 420.651 192.82 420.651 192.82C420.651 192.82 417.59 188.229 415.041 191.629C412.49 195.029 417.081 200.3 417.081 200.3Z" fill="white" stroke="black" stroke-width="0.879838" stroke-miterlimit="10" stroke-linecap="round" stroke-linejoin="round"/>
<path d="M406.878 234.646L411.984 234.55L408.719 238.583L406.878 234.646Z" fill="black" stroke="black" stroke-width="0.879838" stroke-miterlimit="10" stroke-linecap="round" stroke-linejoin="round"/>
<path d="M410.789 208.292C410.789 208.292 414.36 207.101 415.55 211.012" stroke="black" stroke-width="0.879838" stroke-miterlimit="10" stroke-linecap="round" stroke-linejoin="round"/>
<path d="M411.469 211.182L409.259 213.222C409.259 213.222 409.769 213.902 412.49 214.752" stroke="black" stroke-width="0.879838" stroke-miterlimit="10" stroke-linecap="round" stroke-linejoin="round"/>
<path d="M404.329 221.214C404.329 221.214 405.689 223.084 410.45 221.214" stroke="black" stroke-width="0.879838" stroke-miterlimit="10" stroke-linecap="round" stroke-linejoin="round"/>
<path d="M436.974 195.879C434.084 194.349 427.283 194.349 427.283 194.349C427.283 194.349 432.213 189.247 427.453 189.078C422.692 188.908 420.651 192.819 420.651 192.819C420.651 192.819 417.59 188.228 415.041 191.628C412.49 195.029 417.081 200.3 417.081 200.3C417.081 200.3 418.611 201.15 420.651 201.83C422.692 202.51 426.603 203.02 427.113 204.04C427.623 205.061 420.312 207.781 420.992 209.311C421.672 210.841 423.202 215.262 423.202 215.262C423.202 215.262 420.141 219.004 420.651 219.513C421.162 220.023 422.522 221.553 423.032 221.553C423.543 221.553 427.453 219.003 427.963 219.003C428.473 219.003 431.023 219.172 430.683 222.914C430.344 226.655 425.922 228.354 423.882 228.695C421.842 229.035 421.842 229.035 421.842 229.035C421.842 229.035 424.052 230.906 424.732 231.926C425.412 232.946 430.173 232.436 430.173 232.436C430.173 232.436 439.014 228.695 442.585 226.145C446.155 223.595 448.366 213.393 445.475 207.102C442.586 200.809 439.865 197.409 436.974 195.879Z" fill="black" stroke="black" stroke-width="0.879838" stroke-miterlimit="10" stroke-linecap="round" stroke-linejoin="round"/>
<path d="M401.268 254.88C401.268 254.88 397.357 281.405 397.017 284.806C396.677 288.206 396.677 305.38 396.677 305.38L403.478 312.011L409.599 304.189L404.838 280.725L402.457 254.37L401.268 254.88Z" fill="#FFCE51" stroke="black" stroke-width="0.879838" stroke-miterlimit="10" stroke-linecap="round" stroke-linejoin="round"/>
<path d="M403.308 246.208L401.268 254.88L415.041 246.038L403.308 246.208Z" fill="#FFCE51" stroke="black" stroke-width="0.879838" stroke-miterlimit="10" stroke-linecap="round" stroke-linejoin="round"/>
<path d="M430.173 232.436L404.498 240.087L405.348 250.459L433.234 237.026L430.173 232.436Z" fill="white" stroke="black" stroke-width="0.879838" stroke-miterlimit="10" stroke-linecap="round" stroke-linejoin="round"/>
<path d="M404.838 242.297L399.227 241.958L405.689 248.589L404.838 242.297Z" fill="white" stroke="black" stroke-width="0.879838" stroke-miterlimit="10" stroke-linecap="round" stroke-linejoin="round"/>
<path d="M399.227 241.958L399.568 249.609L403.308 246.208L399.227 241.958Z" fill="white" stroke="black" stroke-width="0.879838" stroke-miterlimit="10" stroke-linecap="round" stroke-linejoin="round"/>
<path d="M300.179 269.523C300.179 269.523 291.357 253.786 287.303 246.872" stroke="white" stroke-width="0.879838" stroke-miterlimit="10" stroke-linecap="round" stroke-linejoin="round"/>
<path d="M284.919 250.687L291.118 255.932" stroke="white" stroke-width="0.879838" stroke-miterlimit="10" stroke-linecap="round" stroke-linejoin="round"/>
<path d="M263.46 351.545C263.46 351.545 284.204 339.146 297.079 331.278" stroke="white" stroke-width="0.879838" stroke-miterlimit="10" stroke-linecap="round" stroke-linejoin="round"/>
<path d="M282.535 335.57C282.535 335.57 293.979 330.324 296.841 327.701" stroke="white" stroke-width="0.879838" stroke-miterlimit="10" stroke-linecap="round" stroke-linejoin="round"/>
</g>
<defs>
<clipPath id="clip0_120_2166">
<rect width="768" height="415" fill="white" transform="translate(0.5)"/>
</clipPath>
</defs>
</svg>
