<svg width="223" height="196" viewBox="0 0 223 196" fill="none" xmlns="http://www.w3.org/2000/svg">
<path d="M219.785 57.5171C214.785 68.0456 211.721 64.7318 211.721 64.7318L210.15 75.3383C210.15 75.3383 210.453 80.6235 215.921 75.6298C221.392 70.6375 224.784 46.9919 219.785 57.5171Z" fill="#D15C58"/>
<path d="M188.058 54.1496C188.058 54.1496 203.128 91.4716 208.413 88.8401C213.699 86.2079 220.472 78.3297 212.587 63.0874C204.704 47.8429 188.058 54.1496 188.058 54.1496Z" fill="#EA786A"/>
<path d="M50.8772 158.428L56.4664 189.593C56.4664 189.593 66.0939 196.409 81.3384 192.204C96.5829 187.997 88.0708 172.804 88.0708 172.804L50.8772 158.428Z" fill="#EA786A"/>
<path d="M136.007 166.332L139.685 184.843C139.685 184.843 149.673 189.047 160.711 184.843C171.753 180.637 163.339 158.428 163.339 158.428L136.007 166.332Z" fill="#D15C58"/>
<path d="M49.0105 0.0763214C43.2276 1.65299 51.6394 40.6563 49.0105 46.9112C46.3816 53.1672 73.1906 21.8742 73.1906 21.8742C73.1906 21.8742 54.7939 -1.50035 49.0105 0.0763214Z" fill="#EA786A"/>
<path d="M51.9031 7.96117C50.8512 7.4345 53.5256 28.3887 52.9538 35.4628C52.3813 42.5381 67.0555 28.1173 67.0555 28.1173C67.0555 28.1173 52.9538 8.48672 51.9031 7.96117Z" fill="#D15C58"/>
<path d="M155.442 163.817L161.237 185.894C161.237 185.894 177.008 193.499 191.726 181.748C193.304 168.421 194.628 135.957 194.628 135.957L155.442 161.73V163.817H155.442Z" fill="#EA786A"/>
<path d="M115.266 11.7252C63.4662 11.7252 20.6697 53.4724 20.6697 99.1345C20.6697 144.797 55.5969 174.717 111.322 174.717C167.049 174.717 216.957 147.724 213.014 92.826C209.743 47.2834 170.174 11.7252 115.266 11.7252Z" fill="#F88976"/>
<path d="M101.314 9.27567C95.5148 6.4711 75.5573 40.8147 76.3447 44.7554C77.1347 48.6995 102.889 73.9311 106.57 66.5411C110.251 59.1533 107.112 12.0784 101.314 9.27567Z" fill="#EA786A"/>
<path d="M98.4236 18.7213C95.2681 18.9705 83.2834 42.9172 83.2834 42.9172C82.985 46.0702 91.5892 54.2195 96.8458 58.5205C102.103 62.8222 101.576 18.4731 98.4236 18.7213Z" fill="#D15C58"/>
<path d="M110.389 19.5101C110.389 19.5101 112.466 23.4716 112.751 26.4645C145.822 23.8681 169.418 37.0181 169.418 37.0181C169.418 37.0181 169.389 33.8663 167.052 31.2355C139.903 15.1688 110.389 19.5101 110.389 19.5101Z" fill="#D15C58"/>
<path d="M84.8604 195.04C106.464 197.586 114.981 193.572 114.981 193.572L120.237 173.26L77.1346 161.188C77.1346 161.188 81.3387 189.047 84.8604 195.04Z" fill="#F88976"/>
<path d="M38.8056 77.6665C34.0319 75.4149 12.9249 79.9544 12.9249 79.9544L17.6231 146.141C17.6231 146.141 35.9444 148.795 43.5367 144.3C51.1308 139.807 55.5827 128.234 54.2583 109.56C52.9331 90.8872 43.5796 79.9174 38.8056 77.6665Z" fill="#EA786A"/>
<path d="M12.925 79.9543C4.59152 80.5468 -1.11378 95.8398 0.184021 114.119C1.4822 132.394 9.28714 146.732 17.6232 146.141C25.9581 145.548 31.6601 130.254 30.3623 111.975C29.0649 93.7006 21.2596 79.3622 12.925 79.9543Z" fill="#F88976"/>
<path d="M8.07253 100.365L7.09095 100.436C5.55052 100.544 4.39141 101.882 4.50052 103.423L5.87229 122.773C5.98324 124.314 7.32174 125.475 8.86069 125.366L9.84301 125.296C11.3827 125.187 12.5429 123.848 12.4338 122.308L11.0609 102.958C10.9526 101.417 9.61222 100.257 8.07253 100.365Z" fill="#D15C58"/>
<path d="M19.0352 100.753L18.0536 100.822C16.5117 100.932 15.353 102.269 15.4625 103.809L16.8361 123.159C16.9441 124.701 18.2815 125.862 19.8238 125.753L20.8053 125.683C22.345 125.572 23.506 124.235 23.3958 122.694L22.0221 103.343C21.9138 101.803 20.5753 100.643 19.0352 100.753Z" fill="#D15C58"/>
<path d="M63.5353 58.2138C58.0378 56.4866 52.1021 59.8023 50.2739 65.6186C48.4494 71.436 51.4256 77.5489 56.9231 79.2757C62.4242 81.0025 68.3636 77.6879 70.1866 71.8705C72.0137 66.0539 69.0364 59.9418 63.5353 58.2138Z" fill="white"/>
<path d="M61.7289 60.1685C57.4302 58.8204 52.7896 61.4123 51.3598 65.9581C49.9318 70.5073 52.26 75.2865 56.5584 76.6375C60.8587 77.986 65.5006 75.396 66.9301 70.8476C68.3577 66.3006 66.0288 61.5192 61.7289 60.1685Z" fill="#221F1F"/>
<path d="M41.8295 54.9211C39.2376 53.5852 35.5039 55.6686 33.4945 59.5731C31.4877 63.475 31.9648 67.7231 34.5586 69.0605C37.1542 70.3956 40.886 68.3123 42.8935 64.4059C44.9018 60.5025 44.4251 56.2544 41.8295 54.9211Z" fill="white"/>
<path d="M40.1777 56.0392C38.1476 54.9962 35.2295 56.6243 33.6606 59.6759C32.0913 62.7301 32.4605 66.0507 34.4898 67.094C36.5199 68.1355 39.4366 66.5074 41.0077 63.4562C42.5781 60.403 42.2023 57.0833 40.1777 56.0392Z" fill="#221F1F"/>
<path d="M63.5734 63.2849C62.5208 63.2849 61.6702 64.1363 61.6702 65.1882C61.6702 66.2389 62.5208 67.0914 63.5734 67.0914C64.6238 67.0914 65.4767 66.2385 65.4767 65.1882C65.4767 64.1363 64.6234 63.2849 63.5734 63.2849Z" fill="white"/>
<path d="M39.7669 58.3621C39.2831 58.1558 38.7235 58.3806 38.519 58.8644C38.3134 59.3459 38.5386 59.9074 39.0227 60.1123C39.5065 60.3183 40.065 60.0938 40.2717 59.6093C40.4762 59.127 40.2514 58.5678 39.7669 58.3621Z" fill="white"/>
</svg>
