<svg width="98" height="110" viewBox="0 0 98 110" fill="none" xmlns="http://www.w3.org/2000/svg">
<g filter="url(#filter0_d_120_452)">
<path d="M12.1101 45.6093C10.9604 45.7641 10.9326 47.4807 12.0752 47.6808C37.25 52.0907 45.858 56.7088 50.3454 84.6003C50.5336 85.7702 52.4072 85.7623 52.571 84.5888C56.4623 56.72 61.7212 51.4538 89.5885 47.569C90.7621 47.4054 90.7623 45.5928 89.5888 45.4289C61.72 41.5377 56.4538 36.2788 52.5689 8.4115C52.4053 7.23789 50.5928 7.23765 50.4289 8.41122C46.4779 36.7085 41.1168 41.7028 12.1101 45.6093Z" fill="#46D3FF"/>
<path d="M51.3327 84.4415C49.0808 70.445 45.7624 62.0192 39.6313 56.5865C33.5328 51.1827 24.8113 48.8966 12.2477 46.6958C12.2447 46.6953 12.2421 46.6948 12.2399 46.6943C12.2395 46.6932 12.2391 46.692 12.2387 46.6907C12.2352 46.679 12.2326 46.663 12.2329 46.6446C12.2332 46.6269 12.2361 46.6118 12.2397 46.6009C12.2409 46.6007 12.2422 46.6005 12.2435 46.6004C26.71 44.6521 35.6324 42.4087 41.3601 36.8761C47.0978 31.3338 49.4476 22.6706 51.4193 8.54951C51.4195 8.54812 51.4197 8.54683 51.4199 8.54563C51.4334 8.53969 51.4598 8.53117 51.4989 8.53117C51.538 8.53117 51.5644 8.53972 51.5779 8.54566C51.5781 8.54686 51.5783 8.54817 51.5785 8.54956C53.5173 22.4571 55.8265 31.0684 61.3778 36.6184C66.929 42.1683 75.5424 44.4774 89.4505 46.4193C89.4519 46.4195 89.4532 46.4197 89.4544 46.4199C89.4603 46.4334 89.4688 46.4598 89.4688 46.4989C89.4688 46.538 89.4603 46.5645 89.4543 46.5779C89.4531 46.5781 89.4518 46.5784 89.4504 46.5785C75.5429 48.5173 66.9316 50.8266 61.3815 56.3778C55.8319 61.9287 53.5228 70.5416 51.5809 84.4486C51.5627 84.4581 51.5228 84.4731 51.4626 84.4734C51.3952 84.4737 51.3508 84.4552 51.3333 84.4449C51.3331 84.4438 51.3329 84.4427 51.3327 84.4415Z" stroke="black" stroke-width="2"/>
</g>
<g filter="url(#filter1_d_120_452)">
<path d="M7.09009 88.49C5.94952 88.7014 5.91019 90.5355 7.04087 90.7946C13.8458 92.3543 17.1287 94.6589 19.0287 101.673C19.3385 102.816 21.5169 102.793 21.7662 101.634C23.2522 94.7282 25.7291 92.2497 32.6341 90.7645C33.7925 90.5153 33.7927 88.4831 32.6343 88.2338C25.7282 86.7477 23.2497 84.2709 21.7645 77.3659C21.5153 76.2075 19.4831 76.2073 19.2338 77.3657C17.6596 84.6813 14.9737 87.0287 7.09009 88.49Z" fill="#46D3FF"/>
<path d="M19.9924 101.405C19.012 97.7891 17.6389 95.2539 15.5276 93.4314C13.4326 91.6229 10.7184 90.6116 7.26427 89.8199C7.25973 89.8189 7.25673 89.8179 7.25492 89.8173C7.25379 89.8159 7.25205 89.8137 7.24981 89.8103C7.23485 89.7872 7.21174 89.7297 7.21354 89.6458C7.21533 89.5619 7.24089 89.5052 7.25696 89.4826C7.25951 89.4791 7.26144 89.4768 7.26265 89.4755C7.26448 89.4749 7.26759 89.4741 7.27234 89.4732C11.2574 88.7346 14.1323 87.742 16.2004 85.8634C18.2843 83.9703 19.4084 81.3079 20.2114 77.5761C20.2146 77.573 20.2211 77.5673 20.233 77.5598C20.2793 77.5306 20.3731 77.497 20.4991 77.497C20.625 77.497 20.7189 77.5306 20.7653 77.5599C20.7771 77.5674 20.7837 77.5731 20.7869 77.5762C21.5443 81.0975 22.5886 83.6687 24.4596 85.5392C26.3305 87.4096 28.9022 88.4536 32.4239 89.2114C32.4269 89.2146 32.4327 89.2212 32.4402 89.233C32.4694 89.2793 32.503 89.3732 32.503 89.4991C32.503 89.625 32.4694 89.7189 32.4401 89.7653C32.4326 89.7771 32.4269 89.7837 32.4238 89.7869C28.9025 90.5443 26.3313 91.5886 24.4608 93.4596C22.5925 95.3284 21.5487 97.8964 20.7911 101.412C20.7858 101.417 20.7763 101.424 20.7604 101.434C20.6943 101.473 20.5699 101.515 20.4076 101.517C20.2457 101.519 20.1147 101.481 20.0396 101.439C20.0117 101.423 19.9982 101.412 19.9924 101.405ZM20.797 101.406C20.7973 101.406 20.7966 101.407 20.7941 101.409C20.7956 101.407 20.7967 101.406 20.797 101.406ZM7.26053 89.4764C7.26046 89.4764 7.26069 89.4762 7.26128 89.476L7.26053 89.4764ZM19.9916 101.405C19.9889 101.402 19.9882 101.4 19.9886 101.4C19.9889 101.4 19.9902 101.402 19.9916 101.405Z" stroke="black" stroke-width="2"/>
</g>
<defs>
<filter id="filter0_d_120_452" x="11.2329" y="7.53113" width="84.2359" height="82.9423" filterUnits="userSpaceOnUse" color-interpolation-filters="sRGB">
<feFlood flood-opacity="0" result="BackgroundImageFix"/>
<feColorMatrix in="SourceAlpha" type="matrix" values="0 0 0 0 0 0 0 0 0 0 0 0 0 0 0 0 0 0 127 0" result="hardAlpha"/>
<feOffset dx="5" dy="5"/>
<feComposite in2="hardAlpha" operator="out"/>
<feColorMatrix type="matrix" values="0 0 0 0 1 0 0 0 0 1 0 0 0 0 1 0 0 0 1 0"/>
<feBlend mode="normal" in2="BackgroundImageFix" result="effect1_dropShadow_120_452"/>
<feBlend mode="normal" in="SourceGraphic" in2="effect1_dropShadow_120_452" result="shape"/>
</filter>
<filter id="filter1_d_120_452" x="6.21344" y="76.4969" width="32.2896" height="31.0199" filterUnits="userSpaceOnUse" color-interpolation-filters="sRGB">
<feFlood flood-opacity="0" result="BackgroundImageFix"/>
<feColorMatrix in="SourceAlpha" type="matrix" values="0 0 0 0 0 0 0 0 0 0 0 0 0 0 0 0 0 0 127 0" result="hardAlpha"/>
<feOffset dx="5" dy="5"/>
<feComposite in2="hardAlpha" operator="out"/>
<feColorMatrix type="matrix" values="0 0 0 0 1 0 0 0 0 1 0 0 0 0 1 0 0 0 1 0"/>
<feBlend mode="normal" in2="BackgroundImageFix" result="effect1_dropShadow_120_452"/>
<feBlend mode="normal" in="SourceGraphic" in2="effect1_dropShadow_120_452" result="shape"/>
</filter>
</defs>
</svg>
