<svg width="50" height="45" viewBox="0 0 50 45" fill="none" xmlns="http://www.w3.org/2000/svg">
<path d="M42.0304 22.3383V9.87222C42.0304 7.92572 41.2354 6.1594 39.9547 4.87675C38.674 3.59605 36.9057 2.80102 34.9592 2.80102H9.70365C7.75716 2.80102 5.98884 3.59605 4.70819 4.87675C3.42749 6.15745 2.63246 7.92572 2.63246 9.87222V35.1278C2.63246 37.0743 3.42749 38.8406 4.70819 40.1232C5.98889 41.4039 7.75716 42.199 9.70365 42.199H34.9592C36.9057 42.199 38.672 41.4039 39.9547 40.1232C41.2354 38.8425 42.0304 37.0743 42.0304 35.1278C42.0304 34.4914 42.5454 33.9763 43.1819 33.9763C43.8183 33.9763 44.3333 34.4913 44.3333 35.1278C44.3333 37.7107 43.2798 40.0508 41.584 41.7506C39.8862 43.4464 37.5421 44.5 34.9611 44.5H9.70556C7.12265 44.5 4.78058 43.4464 3.08274 41.7506C1.38494 40.0528 0.333344 37.7088 0.333344 35.1278V9.87222C0.333344 7.28931 1.3869 4.94919 3.08274 3.24939C4.77857 1.55356 7.12456 0.5 9.70556 0.5H34.9611C37.5421 0.5 39.8842 1.55356 41.584 3.24939C43.2798 4.94718 44.3333 7.29121 44.3333 9.87222V22.3383L47.4333 18.9016C47.8582 18.4316 48.5847 18.3925 49.0566 18.8154C49.5286 19.2404 49.5658 19.9669 49.1428 20.4388L44.0435 26.0921C44.0141 26.1234 43.9847 26.1528 43.9534 26.1822C43.4834 26.6071 42.7569 26.568 42.33 26.096L37.2246 20.4367C36.7997 19.9648 36.8389 19.2383 37.3108 18.8133C37.7827 18.3884 38.5092 18.4276 38.9342 18.8995L42.0341 22.3362L42.0304 22.3383ZM27.9175 25.5048C28.552 25.5048 29.069 26.0198 29.069 26.6563C29.069 27.2907 28.554 27.8077 27.9175 27.8077H23.1511C22.9357 27.8077 22.7066 27.7921 22.4677 27.7588C21.1478 27.5786 19.9475 26.8834 19.0799 25.9082C18.2085 24.9272 17.6661 23.6543 17.6661 22.3208C17.6661 22.1151 17.6817 21.8919 17.715 21.655L19.2327 10.6146C19.3169 9.98599 19.8945 9.54538 20.5212 9.6296C21.1498 9.71381 21.5904 10.2915 21.5062 10.9201L19.9905 21.9605C19.9748 22.0662 19.967 22.1857 19.967 22.3208C19.967 23.0786 20.2862 23.813 20.7973 24.3887C21.3123 24.9683 22.0133 25.3796 22.7712 25.4833C22.8789 25.499 23.0062 25.5068 23.1491 25.5068H27.9155L27.9175 25.5048Z" fill="black"/>
</svg>
