<svg width="61" height="45" viewBox="0 0 61 45" fill="none" xmlns="http://www.w3.org/2000/svg">
<path d="M59.4413 40.7454C58.537 40.076 57.7256 39.2893 57.0286 38.4061C55.3273 36.4334 53.3986 34.2334 49.5413 34.2334C45.684 34.2334 43.7553 36.4334 42.054 38.4061C40.514 40.1734 39.2966 41.5667 36.7813 41.5667C34.266 41.5667 33.0413 40.1734 31.5013 38.4061C29.8 36.4334 27.8713 34.2334 24.014 34.2334C20.1566 34.2334 18.228 36.4334 16.5266 38.4061C14.994 40.1734 13.7766 41.5667 11.254 41.5667C8.7313 41.5667 7.5213 40.1734 5.9813 38.4061C4.92663 37.0206 3.59561 35.8694 2.07263 35.0254C1.72531 34.8678 1.33027 34.8517 0.971295 34.9806C0.612316 35.1094 0.317633 35.373 0.149746 35.7154C-0.0181415 36.0579 -0.0460288 36.4522 0.0719986 36.8149C0.190026 37.1776 0.444684 37.48 0.781964 37.6581C1.94344 38.3419 2.95787 39.2492 3.76663 40.3274C5.4753 42.3001 7.40396 44.5001 11.254 44.5001C15.104 44.5001 17.04 42.3001 18.7413 40.3274C20.2813 38.5601 21.4986 37.1667 24.014 37.1667C26.5293 37.1667 27.7466 38.5601 29.2866 40.3274C30.988 42.3001 32.9166 44.5001 36.7813 44.5001C40.646 44.5001 42.5673 42.3001 44.2686 40.3274C45.8013 38.5601 47.0186 37.1667 49.5413 37.1667C52.064 37.1667 53.2813 38.5601 54.814 40.3274C55.6811 41.418 56.6955 42.383 57.828 43.1947C57.9887 43.3045 58.1697 43.3811 58.3604 43.4202C58.5511 43.4593 58.7477 43.4601 58.9386 43.4224C59.1296 43.3848 59.3112 43.3095 59.4728 43.2009C59.6343 43.0924 59.7727 42.9528 59.8798 42.7902C59.9869 42.6277 60.0605 42.4454 60.0964 42.2541C60.1323 42.0628 60.1298 41.8663 60.089 41.6759C60.0482 41.4856 59.9699 41.3053 59.8587 41.1455C59.7475 40.9858 59.6056 40.8498 59.4413 40.7454Z" fill="black"/>
<path d="M59.4413 29.7454C58.5371 29.0758 57.7258 28.2891 57.0286 27.4061C55.3273 25.4334 53.3986 23.2334 49.5413 23.2334C45.684 23.2334 43.7553 25.4334 42.054 27.4061C40.514 29.1734 39.2966 30.5667 36.774 30.5667C34.2513 30.5667 33.0413 29.1734 31.5013 27.4061C29.8 25.4334 27.8713 23.2334 24.014 23.2334C20.1566 23.2334 18.228 25.4334 16.5266 27.4061C14.994 29.1734 13.7766 30.5667 11.254 30.5667C8.7313 30.5667 7.5213 29.1734 5.9813 27.4061C4.92663 26.0206 3.59561 24.8694 2.07263 24.0254C1.72531 23.8678 1.33027 23.8517 0.971295 23.9806C0.612316 24.1094 0.317633 24.373 0.149746 24.7154C-0.0181415 25.0579 -0.0460288 25.4522 0.0719986 25.8149C0.190026 26.1776 0.444684 26.48 0.781964 26.6581C1.94344 27.3419 2.95787 28.2492 3.76663 29.3274C5.4753 31.3001 7.40396 33.5001 11.254 33.5001C15.104 33.5001 17.04 31.3001 18.7413 29.3274C20.2813 27.5601 21.4913 26.1667 24.014 26.1667C26.5366 26.1667 27.754 27.5601 29.2866 29.3274C30.988 31.3001 32.9166 33.5001 36.774 33.5001C40.6313 33.5001 42.56 31.3001 44.2613 29.3274C45.8013 27.5601 47.0186 26.1667 49.5413 26.1667C52.064 26.1667 53.2813 27.5601 54.814 29.3274C55.681 30.4181 56.6954 31.3831 57.828 32.1947C57.9887 32.3045 58.1697 32.3811 58.3604 32.4202C58.5511 32.4593 58.7477 32.4601 58.9386 32.4224C59.1296 32.3848 59.3112 32.3095 59.4728 32.2009C59.6343 32.0924 59.7727 31.9528 59.8798 31.7902C59.9869 31.6277 60.0605 31.4454 60.0964 31.2541C60.1323 31.0628 60.1298 30.8663 60.089 30.6759C60.0482 30.4856 59.9699 30.3053 59.8587 30.1455C59.7475 29.9858 59.6056 29.8498 59.4413 29.7454Z" fill="black"/>
<path d="M59.4413 18.012C58.537 17.3426 57.7256 16.5559 57.0286 15.6727C55.3273 13.7 53.3986 11.5 49.5413 11.5C45.684 11.5 43.7553 13.7 42.054 15.6727C40.514 17.44 39.2966 18.8333 36.7813 18.8333C34.266 18.8333 33.0413 17.44 31.5013 15.6727C29.8 13.7 27.8713 11.5 24.014 11.5C20.1566 11.5 18.228 13.7 16.5266 15.6727C14.994 17.44 13.7766 18.8333 11.254 18.8333C8.7313 18.8333 7.5213 17.44 5.9813 15.6727C4.92663 14.2872 3.59561 13.136 2.07263 12.292C1.72531 12.1344 1.33027 12.1183 0.971295 12.2472C0.612316 12.376 0.317633 12.6396 0.149746 12.982C-0.0181415 13.3245 -0.0460288 13.7188 0.0719986 14.0815C0.190026 14.4442 0.444684 14.7466 0.781964 14.9247C1.94344 15.6085 2.95787 16.5158 3.76663 17.594C5.4753 19.5667 7.40396 21.7667 11.254 21.7667C15.104 21.7667 17.04 19.5667 18.7413 17.594C20.2813 15.8267 21.4986 14.4333 24.014 14.4333C26.5293 14.4333 27.7466 15.8267 29.2866 17.594C30.988 19.5667 32.9166 21.7667 36.7813 21.7667C40.646 21.7667 42.5673 19.5667 44.2686 17.594C45.8013 15.8267 47.0186 14.4333 49.5413 14.4333C52.064 14.4333 53.2813 15.8267 54.814 17.594C55.6811 18.6846 56.6955 19.6496 57.828 20.4613C57.9887 20.5711 58.1697 20.6477 58.3604 20.6868C58.5511 20.7259 58.7477 20.7267 58.9386 20.689C59.1296 20.6514 59.3112 20.5761 59.4728 20.4675C59.6343 20.359 59.7727 20.2194 59.8798 20.0568C59.9869 19.8943 60.0605 19.712 60.0964 19.5207C60.1323 19.3294 60.1298 19.1329 60.089 18.9425C60.0482 18.7522 59.9699 18.5719 59.8587 18.4121C59.7475 18.2524 59.6056 18.1164 59.4413 18.012Z" fill="black"/>
<path d="M59.4413 7.012C58.5371 6.34239 57.7258 5.55575 57.0286 4.67267C55.3273 2.7 53.3986 0.5 49.5413 0.5C45.684 0.5 43.7553 2.7 42.054 4.67267C40.514 6.44 39.2966 7.83333 36.774 7.83333C34.2513 7.83333 33.0413 6.44 31.5013 4.67267C29.8 2.7 27.8713 0.5 24.014 0.5C20.1566 0.5 18.228 2.7 16.5266 4.67267C14.994 6.44 13.7766 7.83333 11.254 7.83333C8.7313 7.83333 7.5213 6.44 5.9813 4.67267C4.92663 3.28721 3.59561 2.13599 2.07263 1.292C1.72531 1.13443 1.33027 1.11834 0.971295 1.24716C0.612316 1.37598 0.317633 1.63956 0.149746 1.98201C-0.0181415 2.32446 -0.0460288 2.71885 0.0719986 3.08152C0.190026 3.44419 0.444684 3.74662 0.781964 3.92467C1.94344 4.60852 2.95787 5.51577 3.76663 6.594C5.4753 8.56667 7.40396 10.7667 11.254 10.7667C15.104 10.7667 17.04 8.56667 18.7413 6.594C20.2813 4.82667 21.4913 3.43333 24.014 3.43333C26.5366 3.43333 27.754 4.82667 29.2866 6.594C30.988 8.56667 32.9166 10.7667 36.774 10.7667C40.6313 10.7667 42.56 8.56667 44.2613 6.594C45.8013 4.82667 47.0186 3.43333 49.5413 3.43333C52.064 3.43333 53.2813 4.82667 54.814 6.594C55.681 7.68471 56.6954 8.6497 57.828 9.46133C57.9887 9.57109 58.1697 9.64774 58.3604 9.68683C58.5511 9.72592 58.7477 9.72667 58.9386 9.68901C59.1296 9.65136 59.3112 9.57607 59.4728 9.46754C59.6343 9.359 59.7727 9.21938 59.8798 9.05682C59.9869 8.89427 60.0605 8.71202 60.0964 8.52071C60.1323 8.3294 60.1298 8.13286 60.089 7.94253C60.0482 7.75221 59.9699 7.57191 59.8587 7.41215C59.7475 7.25239 59.6056 7.11636 59.4413 7.012Z" fill="black"/>
</svg>
