<svg width="38" height="44" viewBox="0 0 38 44" fill="none" xmlns="http://www.w3.org/2000/svg">
<path d="M18.8451 43.9962C17.8643 43.9962 16.8871 43.6481 16.1054 42.9483L1.56744 29.9403C0.996056 29.4303 0.666626 28.697 0.666626 27.9301L0.668487 5.10064C0.668487 3.80898 1.58793 2.6941 2.861 2.45214L12.6286 0.589058C16.7549 -0.196353 20.9387 -0.196353 25.0654 0.589058L34.833 2.45214C36.1061 2.69596 37.0255 3.81084 37.0255 5.10064V27.934C37.0255 28.7008 36.6961 29.4341 36.1247 29.9441L21.5867 42.9521C20.805 43.652 19.8241 44 18.847 44L18.8451 43.9962ZM18.8451 1.78013C16.8778 1.78013 14.9143 1.96626 12.9598 2.33851L3.19219 4.20159C2.76412 4.28349 2.44957 4.66317 2.44957 5.1024V27.9357C2.44957 28.1982 2.55938 28.4457 2.75481 28.6169L17.2928 41.625C18.1788 42.416 19.5132 42.416 20.3991 41.625L34.9372 28.6169C35.1326 28.4457 35.2424 28.1926 35.2424 27.9357L35.2405 5.1005C35.2405 4.66126 34.926 4.28531 34.4979 4.19969L24.7303 2.3366C22.776 1.96436 20.8143 1.77823 18.845 1.77823L18.8451 1.78013Z" fill="black"/>
<path d="M16.7772 5.33892C13.2093 6.33464 9.58734 6.99727 5.94331 7.58728C6.0252 7.56867 6.08662 7.49236 6.09593 7.41047C6.07173 13.7666 5.97681 20.2379 5.53384 26.5697C5.09087 20.1989 4.99038 13.677 4.97546 7.28754C5.00897 6.92088 5.28442 6.59704 5.64176 6.50584C5.73668 6.47793 6.13686 6.42953 6.23734 6.41092C9.72895 5.89724 13.2281 5.46728 16.7682 5.33887L16.7772 5.33892Z" fill="black"/>
<path d="M19.7552 6.02031V38.0142C19.7552 38.057 19.8036 38.0812 19.8371 38.0514L32.069 27.4352C32.1937 27.3254 32.2644 27.1691 32.2644 27.0072L32.2625 8.05468C32.2625 7.77922 32.0615 7.541 31.7917 7.49259L20.4236 5.45831C20.0755 5.39688 19.7517 5.66304 19.7517 6.0204L19.7552 6.02031Z" fill="black"/>
<path d="M19.8038 38.5112C19.733 38.5112 19.6605 38.4963 19.599 38.4684C19.4222 38.3865 19.3087 38.2116 19.3087 38.0161L19.3068 6.02034C19.3068 5.7151 19.4408 5.43404 19.6735 5.23864C19.9061 5.04324 20.2114 4.96319 20.5073 5.0153L31.8754 7.04958C32.3611 7.1352 32.7185 7.55954 32.7185 8.05464V27.0038C32.7185 27.2997 32.59 27.5807 32.3667 27.7762L20.1348 38.3924C20.0436 38.4743 19.9245 38.5171 19.8054 38.5171L19.8038 38.5112ZM20.323 5.89744C20.2895 5.89744 20.2616 5.91233 20.2467 5.92536C20.2281 5.94024 20.2039 5.97375 20.2039 6.01656V37.1304L31.773 27.0912C31.801 27.067 31.8158 27.0335 31.8158 27L31.814 8.05469C31.814 7.997 31.7712 7.94488 31.7135 7.93558L20.3454 5.90129H20.3212L20.323 5.89744Z" fill="black"/>
</svg>
