<svg width="768" height="1024" viewBox="0 0 768 1024" fill="none" xmlns="http://www.w3.org/2000/svg">
<rect width="768" height="1024" fill="#46D3FF"/>
<path d="M85 132C85 120.658 85.0021 112.252 85.8698 105.799C86.7335 99.3741 88.4386 95.0345 91.7365 91.7365C95.0345 88.4386 99.3741 86.7335 105.799 85.8698C112.252 85.0021 120.658 85 132 85H636C647.342 85 655.748 85.0021 662.201 85.8698C668.626 86.7335 672.966 88.4386 676.263 91.7365C679.561 95.0345 681.266 99.3741 682.13 105.799C682.998 112.252 683 120.658 683 132V976C683 987.342 682.998 995.748 682.13 1002.2C681.266 1008.63 679.561 1012.97 676.263 1016.26C672.966 1019.56 668.626 1021.27 662.201 1022.13C655.748 1023 647.342 1023 636 1023H132C120.658 1023 112.252 1023 105.799 1022.13C99.3741 1021.27 95.0345 1019.56 91.7365 1016.26C88.4386 1012.97 86.7335 1008.63 85.8698 1002.2C85.0021 995.748 85 987.342 85 976V132Z" fill="white" stroke="black" stroke-width="2"/>
<mask id="path-2-inside-1_139_582" fill="white">
<path d="M0 572H768V1024H0V572Z"/>
</mask>
<path d="M0 572H768V1024H0V572Z" fill="#FFCE51"/>
<path d="M0 574H768V570H0V574Z" fill="black" mask="url(#path-2-inside-1_139_582)"/>
<path d="M224.448 341.152C219.968 341.152 215.808 340.32 211.968 338.656C208.128 336.928 204.864 334.592 202.176 331.648C199.488 328.704 197.504 325.312 196.224 321.472L205.824 317.44C207.552 321.856 210.08 325.248 213.408 327.616C216.736 329.984 220.576 331.168 224.928 331.168C227.488 331.168 229.728 330.784 231.648 330.016C233.568 329.184 235.04 328.032 236.064 326.56C237.152 325.088 237.696 323.392 237.696 321.472C237.696 318.848 236.96 316.768 235.488 315.232C234.016 313.696 231.84 312.48 228.96 311.584L215.52 307.36C210.144 305.696 206.048 303.168 203.232 299.776C200.416 296.32 199.008 292.288 199.008 287.68C199.008 283.648 200 280.128 201.984 277.12C203.968 274.048 206.688 271.648 210.144 269.92C213.664 268.192 217.664 267.328 222.144 267.328C226.432 267.328 230.336 268.096 233.856 269.632C237.376 271.104 240.384 273.152 242.88 275.776C245.44 278.4 247.296 281.44 248.448 284.896L239.04 289.024C237.632 285.248 235.424 282.336 232.416 280.288C229.472 278.24 226.048 277.216 222.144 277.216C219.776 277.216 217.696 277.632 215.904 278.464C214.112 279.232 212.704 280.384 211.68 281.92C210.72 283.392 210.24 285.12 210.24 287.104C210.24 289.408 210.976 291.456 212.448 293.248C213.92 295.04 216.16 296.384 219.168 297.28L231.648 301.216C237.344 302.944 241.632 305.44 244.512 308.704C247.392 311.904 248.832 315.904 248.832 320.704C248.832 324.672 247.776 328.192 245.664 331.264C243.616 334.336 240.768 336.768 237.12 338.56C233.472 340.288 229.248 341.152 224.448 341.152ZM220.032 349.6V258.88H227.712V349.6H220.032ZM290.06 340V323.872H255.98V314.464L289.58 268.48H300.812V314.464H310.7V323.872H300.812V340H290.06ZM264.332 318.592L262.508 314.464H290.06V277.504L293.132 278.464L264.332 318.592ZM340.507 341.152C336.667 341.152 333.051 340.448 329.659 339.04C326.331 337.632 323.451 335.648 321.019 333.088C318.651 330.528 316.955 327.52 315.931 324.064L325.531 320.416C326.811 323.808 328.763 326.432 331.387 328.288C334.011 330.144 337.051 331.072 340.507 331.072C343.323 331.072 345.755 330.528 347.803 329.44C349.915 328.352 351.547 326.816 352.699 324.832C353.915 322.848 354.523 320.448 354.523 317.632C354.523 314.88 353.915 312.512 352.699 310.528C351.547 308.544 349.915 307.04 347.803 306.016C345.755 304.992 343.323 304.48 340.507 304.48C339.355 304.48 338.171 304.576 336.955 304.768C335.803 304.96 334.779 305.216 333.883 305.536L331.387 300.256L350.203 278.08H319.771V268.48H362.875V277.6L344.443 299.68L344.155 296.032C348.443 296.096 352.219 297.056 355.483 298.912C358.747 300.704 361.275 303.2 363.067 306.4C364.923 309.536 365.851 313.184 365.851 317.344C365.851 321.824 364.763 325.888 362.587 329.536C360.411 333.12 357.403 335.968 353.563 338.08C349.787 340.128 345.435 341.152 340.507 341.152ZM406.97 340V323.872H372.89V314.464L406.49 268.48H417.722V314.464H427.61V323.872H417.722V340H406.97ZM381.242 318.592L379.418 314.464H406.97V277.504L410.042 278.464L381.242 318.592ZM440.425 340V327.52H451.465V340H440.425ZM489.354 341.152C485.578 341.152 482.026 340.48 478.698 339.136C475.37 337.728 472.49 335.776 470.058 333.28C467.626 330.784 465.898 327.776 464.874 324.256L474.378 320.608C475.594 324 477.578 326.592 480.33 328.384C483.082 330.176 486.09 331.072 489.354 331.072C492.042 331.072 494.41 330.464 496.458 329.248C498.506 328.032 500.106 326.368 501.258 324.256C502.474 322.144 503.082 319.744 503.082 317.056C503.082 314.304 502.474 311.904 501.258 309.856C500.106 307.744 498.506 306.112 496.458 304.96C494.41 303.744 492.042 303.136 489.354 303.136C486.666 303.136 484.202 303.744 481.962 304.96C479.722 306.176 478.09 307.808 477.066 309.856L467.946 307.84L473.514 268.48H511.626V278.08H477.93L482.25 273.376L478.122 303.52L474.57 301.12C476.49 298.432 478.826 296.48 481.578 295.264C484.33 294.048 487.466 293.44 490.986 293.44C495.658 293.44 499.722 294.496 503.178 296.608C506.698 298.656 509.418 301.472 511.338 305.056C513.322 308.576 514.314 312.576 514.314 317.056C514.314 321.6 513.226 325.696 511.05 329.344C508.874 332.992 505.898 335.872 502.122 337.984C498.41 340.096 494.154 341.152 489.354 341.152ZM546.689 341.152C542.017 341.152 537.857 340.128 534.209 338.08C530.561 336.032 527.681 333.216 525.569 329.632C523.521 326.048 522.497 321.984 522.497 317.44C522.497 315.072 522.753 312.704 523.265 310.336C523.777 307.968 524.673 305.504 525.953 302.944C527.297 300.384 529.089 297.632 531.329 294.688L551.297 268.48H564.833L540.353 300.16L538.433 298.912C539.329 297.888 540.289 297.088 541.313 296.512C542.401 295.936 543.521 295.52 544.673 295.264C545.889 295.008 547.169 294.88 548.513 294.88C552.801 294.88 556.641 295.872 560.033 297.856C563.425 299.84 566.081 302.528 568.001 305.92C569.985 309.312 570.977 313.216 570.977 317.632C570.977 322.112 569.921 326.144 567.809 329.728C565.697 333.248 562.817 336.032 559.169 338.08C555.585 340.128 551.425 341.152 546.689 341.152ZM546.689 331.072C549.185 331.072 551.393 330.496 553.313 329.344C555.233 328.192 556.769 326.624 557.921 324.64C559.073 322.592 559.649 320.288 559.649 317.728C559.649 315.104 559.073 312.8 557.921 310.816C556.833 308.832 555.297 307.296 553.313 306.208C551.393 305.056 549.185 304.48 546.689 304.48C544.257 304.48 542.049 305.056 540.065 306.208C538.145 307.296 536.609 308.832 535.457 310.816C534.305 312.8 533.729 315.104 533.729 317.728C533.729 320.288 534.305 322.592 535.457 324.64C536.609 326.624 538.145 328.192 540.065 329.344C542.049 330.496 544.257 331.072 546.689 331.072Z" fill="black"/>
<path d="M302.764 411L309.052 393.12H312.556L318.844 411H315.82L314.452 406.992H307.18L305.788 411H302.764ZM307.996 404.472H313.588L310.42 395.112H311.212L307.996 404.472ZM318.901 411L325.189 393.12H328.693L334.981 411H331.957L330.589 406.992H323.317L321.925 411H318.901ZM324.133 404.472H329.725L326.557 395.112H327.349L324.133 404.472ZM340.179 411L333.843 393.12H336.891L342.075 408.384H341.475L346.635 393.12H349.683L343.347 411H340.179ZM351.306 411V393.12H363.09V395.64H354.138V400.776H362.61V403.296H354.138V408.48H363.09V411H351.306ZM368.692 415.8V398.016H371.284V400.704L370.972 400.08C371.452 399.344 372.092 398.768 372.892 398.352C373.692 397.936 374.604 397.728 375.628 397.728C376.86 397.728 377.964 398.024 378.94 398.616C379.932 399.208 380.708 400.016 381.268 401.04C381.844 402.064 382.132 403.216 382.132 404.496C382.132 405.776 381.844 406.928 381.268 407.952C380.708 408.976 379.94 409.792 378.964 410.4C377.988 410.992 376.876 411.288 375.628 411.288C374.62 411.288 373.7 411.08 372.868 410.664C372.052 410.248 371.42 409.648 370.972 408.864L371.404 408.36V415.8H368.692ZM375.364 408.768C376.132 408.768 376.812 408.584 377.404 408.216C377.996 407.848 378.46 407.344 378.796 406.704C379.148 406.048 379.324 405.312 379.324 404.496C379.324 403.68 379.148 402.952 378.796 402.312C378.46 401.672 377.996 401.168 377.404 400.8C376.812 400.432 376.132 400.248 375.364 400.248C374.612 400.248 373.932 400.432 373.324 400.8C372.732 401.168 372.26 401.672 371.908 402.312C371.572 402.952 371.404 403.68 371.404 404.496C371.404 405.312 371.572 406.048 371.908 406.704C372.26 407.344 372.732 407.848 373.324 408.216C373.932 408.584 374.612 408.768 375.364 408.768ZM384.29 411V398.016H386.882V400.632L386.642 400.248C386.93 399.4 387.394 398.792 388.034 398.424C388.674 398.04 389.442 397.848 390.338 397.848H391.13V400.32H390.002C389.106 400.32 388.378 400.6 387.818 401.16C387.274 401.704 387.002 402.488 387.002 403.512V411H384.29ZM398.769 411.288C397.521 411.288 396.377 410.992 395.337 410.4C394.313 409.808 393.497 409 392.889 407.976C392.281 406.952 391.977 405.792 391.977 404.496C391.977 403.184 392.281 402.024 392.889 401.016C393.497 399.992 394.313 399.192 395.337 398.616C396.361 398.024 397.505 397.728 398.769 397.728C400.049 397.728 401.193 398.024 402.201 398.616C403.225 399.192 404.033 399.992 404.625 401.016C405.233 402.024 405.537 403.184 405.537 404.496C405.537 405.808 405.233 406.976 404.625 408C404.017 409.024 403.201 409.832 402.177 410.424C401.153 411 400.017 411.288 398.769 411.288ZM398.769 408.768C399.537 408.768 400.217 408.584 400.809 408.216C401.401 407.848 401.865 407.344 402.201 406.704C402.553 406.048 402.729 405.312 402.729 404.496C402.729 403.68 402.553 402.952 402.201 402.312C401.865 401.672 401.401 401.168 400.809 400.8C400.217 400.432 399.537 400.248 398.769 400.248C398.017 400.248 397.337 400.432 396.729 400.8C396.137 401.168 395.665 401.672 395.313 402.312C394.977 402.952 394.809 403.68 394.809 404.496C394.809 405.312 394.977 406.048 395.313 406.704C395.665 407.344 396.137 407.848 396.729 408.216C397.337 408.584 398.017 408.768 398.769 408.768ZM413.087 411.144C411.727 411.144 410.671 410.76 409.919 409.992C409.167 409.224 408.791 408.144 408.791 406.752V400.464H406.511V398.016H406.871C407.479 398.016 407.951 397.84 408.287 397.488C408.623 397.136 408.791 396.656 408.791 396.048V395.04H411.503V398.016H414.455V400.464H411.503V406.632C411.503 407.08 411.575 407.464 411.719 407.784C411.863 408.088 412.095 408.328 412.415 408.504C412.735 408.664 413.151 408.744 413.663 408.744C413.791 408.744 413.935 408.736 414.095 408.72C414.255 408.704 414.407 408.688 414.551 408.672V411C414.327 411.032 414.079 411.064 413.807 411.096C413.535 411.128 413.295 411.144 413.087 411.144ZM422.747 411.288C421.499 411.288 420.355 410.992 419.315 410.4C418.291 409.808 417.475 409 416.867 407.976C416.259 406.952 415.955 405.792 415.955 404.496C415.955 403.184 416.259 402.024 416.867 401.016C417.475 399.992 418.291 399.192 419.315 398.616C420.339 398.024 421.483 397.728 422.747 397.728C424.027 397.728 425.171 398.024 426.179 398.616C427.203 399.192 428.011 399.992 428.603 401.016C429.211 402.024 429.515 403.184 429.515 404.496C429.515 405.808 429.211 406.976 428.603 408C427.995 409.024 427.179 409.832 426.155 410.424C425.131 411 423.995 411.288 422.747 411.288ZM422.747 408.768C423.515 408.768 424.195 408.584 424.787 408.216C425.379 407.848 425.843 407.344 426.179 406.704C426.531 406.048 426.707 405.312 426.707 404.496C426.707 403.68 426.531 402.952 426.179 402.312C425.843 401.672 425.379 401.168 424.787 400.8C424.195 400.432 423.515 400.248 422.747 400.248C421.995 400.248 421.315 400.432 420.707 400.8C420.115 401.168 419.643 401.672 419.291 402.312C418.955 402.952 418.787 403.68 418.787 404.496C418.787 405.312 418.955 406.048 419.291 406.704C419.643 407.344 420.115 407.848 420.707 408.216C421.315 408.584 421.995 408.768 422.747 408.768ZM437.85 411.288C436.554 411.288 435.402 410.992 434.394 410.4C433.402 409.792 432.61 408.976 432.018 407.952C431.442 406.928 431.154 405.768 431.154 404.472C431.154 403.192 431.442 402.04 432.018 401.016C432.594 399.992 433.386 399.192 434.394 398.616C435.402 398.024 436.554 397.728 437.85 397.728C438.73 397.728 439.554 397.888 440.322 398.208C441.09 398.512 441.754 398.936 442.314 399.48C442.89 400.024 443.314 400.656 443.586 401.376L441.21 402.48C440.938 401.808 440.498 401.272 439.89 400.872C439.298 400.456 438.618 400.248 437.85 400.248C437.114 400.248 436.45 400.432 435.858 400.8C435.282 401.152 434.826 401.656 434.49 402.312C434.154 402.952 433.986 403.68 433.986 404.496C433.986 405.312 434.154 406.048 434.49 406.704C434.826 407.344 435.282 407.848 435.858 408.216C436.45 408.584 437.114 408.768 437.85 408.768C438.634 408.768 439.314 408.568 439.89 408.168C440.482 407.752 440.922 407.2 441.21 406.512L443.586 407.64C443.33 408.328 442.914 408.952 442.338 409.512C441.778 410.056 441.114 410.488 440.346 410.808C439.578 411.128 438.746 411.288 437.85 411.288ZM452.021 411.288C450.773 411.288 449.629 410.992 448.589 410.4C447.565 409.808 446.749 409 446.141 407.976C445.533 406.952 445.229 405.792 445.229 404.496C445.229 403.184 445.533 402.024 446.141 401.016C446.749 399.992 447.565 399.192 448.589 398.616C449.613 398.024 450.757 397.728 452.021 397.728C453.301 397.728 454.445 398.024 455.453 398.616C456.477 399.192 457.285 399.992 457.877 401.016C458.485 402.024 458.789 403.184 458.789 404.496C458.789 405.808 458.485 406.976 457.877 408C457.269 409.024 456.453 409.832 455.429 410.424C454.405 411 453.269 411.288 452.021 411.288ZM452.021 408.768C452.789 408.768 453.469 408.584 454.061 408.216C454.653 407.848 455.117 407.344 455.453 406.704C455.805 406.048 455.981 405.312 455.981 404.496C455.981 403.68 455.805 402.952 455.453 402.312C455.117 401.672 454.653 401.168 454.061 400.8C453.469 400.432 452.789 400.248 452.021 400.248C451.269 400.248 450.589 400.432 449.981 400.8C449.389 401.168 448.917 401.672 448.565 402.312C448.229 402.952 448.061 403.68 448.061 404.496C448.061 405.312 448.229 406.048 448.565 406.704C448.917 407.344 449.389 407.848 449.981 408.216C450.589 408.584 451.269 408.768 452.021 408.768ZM460.957 411V392.832H463.669V411H460.957Z" fill="black"/>
<path d="M354.352 795.948C354.09 792.975 351.912 787.595 345.671 784.919C341.681 783 334.698 784.089 334.698 784.089L334.7 784.096C334.699 784.095 334.699 784.094 334.698 784.092C334.251 784.167 333.808 784.261 333.377 784.37C330.862 782.906 327.843 782.902 326.049 783.078C325.268 783.153 324.806 783.987 325.148 784.693L326.668 787.809C324.979 789.28 323.702 791.082 322.985 793.091L321.13 793.083C320.507 793.079 320 793.586 320 794.209V798.369C320 798.79 320.233 799.172 320.604 799.367L323.011 800.622C324.017 803.395 326.1 805.776 328.848 807.416L329.549 812.043L333.21 811.855L335.181 813L335.583 809.684C336.312 809.775 337.052 809.809 337.809 809.819C338.893 809.833 340.46 809.687 342.065 809.469L342.454 812.043L345.105 811.269L347.077 812.413C347.077 812.413 348.289 809.754 349.214 807.692C353.743 805.019 354.729 800.228 354.352 795.948ZM329.064 795.048C328.128 795.048 327.374 794.292 327.374 793.358C327.374 792.423 328.128 791.668 329.064 791.668C329.998 791.668 330.753 792.422 330.753 793.358C330.753 794.293 329.998 795.048 329.064 795.048ZM336.302 786.812V786.809C336.214 786.445 336.432 786.083 336.78 785.978C339.838 785.413 342.625 786.261 343.352 786.513C343.621 786.612 343.884 786.721 344.139 786.841C344.51 787.014 344.652 787.468 344.446 787.822C344.267 788.136 343.873 788.26 343.547 788.105C341.067 786.933 338.3 787.154 337.084 787.337C336.728 787.39 336.386 787.163 336.302 786.812ZM349.194 790.404C348.815 791.102 348.112 791.56 346.963 791.683L346.982 791.935C347.885 791.837 348.593 791.551 349.039 791.104C349.071 791.493 349.181 792.68 348.29 793.484C347.569 794.134 346.376 794.4 344.813 794.004L344.742 794.247C345.341 794.397 345.881 794.473 346.363 794.473C346.77 794.473 347.134 794.418 347.457 794.309C347.449 794.602 347.499 795.518 346.659 796.145C345.942 796.678 344.79 796.802 343.385 796.337L343.303 796.574C343.966 796.795 344.558 796.906 345.077 796.906C345.167 796.906 345.254 796.9 345.341 796.893C345.164 797.255 344.101 799.171 341.472 798.859C341.434 798.856 337.691 798.666 336.883 795.536C336.844 795.355 336.771 794.85 336.911 794.68C336.941 794.643 336.978 794.625 337.026 794.624C337.081 794.64 337.361 794.712 337.747 794.527C338.222 794.298 338.913 793.645 339.515 791.823C339.519 791.799 339.859 789.569 343.617 789.909C343.655 789.916 347.243 790.423 349.06 787.436C349.237 787.826 349.837 789.218 349.194 790.404Z" fill="#040404"/>
<path d="M370.509 805.716C369.657 805.716 368.865 805.56 368.133 805.248C367.413 804.936 366.789 804.504 366.261 803.952C365.745 803.388 365.367 802.734 365.127 801.99L367.161 801.108C367.485 801.876 367.953 802.482 368.565 802.926C369.177 803.358 369.867 803.574 370.635 803.574C371.067 803.574 371.439 803.508 371.751 803.376C372.075 803.232 372.321 803.04 372.489 802.8C372.669 802.56 372.759 802.272 372.759 801.936C372.759 801.54 372.639 801.216 372.399 800.964C372.171 800.7 371.823 800.496 371.355 800.352L368.781 799.524C367.737 799.2 366.951 798.714 366.423 798.066C365.895 797.418 365.631 796.656 365.631 795.78C365.631 795.012 365.817 794.334 366.189 793.746C366.573 793.158 367.101 792.702 367.773 792.378C368.457 792.042 369.237 791.874 370.113 791.874C370.917 791.874 371.655 792.018 372.327 792.306C372.999 792.582 373.575 792.972 374.055 793.476C374.547 793.968 374.913 794.55 375.153 795.222L373.137 796.122C372.873 795.45 372.477 794.934 371.949 794.574C371.421 794.202 370.809 794.016 370.113 794.016C369.705 794.016 369.345 794.088 369.033 794.232C368.721 794.364 368.475 794.556 368.295 794.808C368.127 795.048 368.043 795.336 368.043 795.672C368.043 796.044 368.163 796.374 368.403 796.662C368.643 796.938 369.009 797.154 369.501 797.31L371.967 798.084C373.035 798.432 373.833 798.912 374.361 799.524C374.901 800.136 375.171 800.892 375.171 801.792C375.171 802.56 374.973 803.238 374.577 803.826C374.181 804.414 373.635 804.876 372.939 805.212C372.243 805.548 371.433 805.716 370.509 805.716ZM379.7 805.716C379.016 805.716 378.422 805.602 377.918 805.374C377.414 805.146 377.024 804.822 376.748 804.402C376.472 803.97 376.334 803.472 376.334 802.908C376.334 802.368 376.454 801.888 376.694 801.468C376.934 801.036 377.306 800.676 377.81 800.388C378.314 800.1 378.95 799.896 379.718 799.776L382.922 799.254V801.054L380.168 801.522C379.7 801.606 379.352 801.756 379.124 801.972C378.896 802.188 378.782 802.47 378.782 802.818C378.782 803.154 378.908 803.424 379.16 803.628C379.424 803.82 379.748 803.916 380.132 803.916C380.624 803.916 381.056 803.814 381.428 803.61C381.812 803.394 382.106 803.1 382.31 802.728C382.526 802.356 382.634 801.948 382.634 801.504V798.984C382.634 798.564 382.466 798.216 382.13 797.94C381.806 797.652 381.374 797.508 380.834 797.508C380.33 797.508 379.88 797.646 379.484 797.922C379.1 798.186 378.818 798.54 378.638 798.984L376.712 798.048C376.904 797.532 377.204 797.088 377.612 796.716C378.032 796.332 378.524 796.032 379.088 795.816C379.652 795.6 380.264 795.492 380.924 795.492C381.728 795.492 382.436 795.642 383.048 795.942C383.66 796.23 384.134 796.638 384.47 797.166C384.818 797.682 384.992 798.288 384.992 798.984V805.5H382.76V803.826L383.264 803.79C383.012 804.21 382.712 804.564 382.364 804.852C382.016 805.128 381.62 805.344 381.176 805.5C380.732 805.644 380.24 805.716 379.7 805.716ZM387.999 809.478C387.735 809.478 387.477 809.454 387.225 809.406C386.973 809.37 386.745 809.304 386.541 809.208V807.228C386.697 807.264 386.883 807.3 387.099 807.336C387.327 807.372 387.537 807.39 387.729 807.39C388.269 807.39 388.659 807.264 388.899 807.012C389.151 806.76 389.373 806.43 389.565 806.022L390.213 804.51L390.177 806.49L385.911 795.708H388.449L391.437 803.664H390.537L393.507 795.708H396.063L391.797 806.49C391.545 807.126 391.239 807.666 390.879 808.11C390.519 808.554 390.099 808.89 389.619 809.118C389.151 809.358 388.611 809.478 387.999 809.478ZM399.464 805.5L396.098 795.708H398.582L401.048 803.142L400.184 803.124L402.812 795.708H404.9L407.51 803.124L406.646 803.142L409.112 795.708H411.596L408.23 805.5H406.124L403.46 797.742H404.252L401.552 805.5H399.464ZM412.528 805.5V795.708H414.886V805.5H412.528ZM412.528 794.61V792.09H414.886V794.61H412.528ZM416.704 805.5V795.708H418.918V797.634L418.738 797.292C418.966 796.704 419.338 796.26 419.854 795.96C420.382 795.648 420.994 795.492 421.69 795.492C422.41 795.492 423.046 795.648 423.598 795.96C424.162 796.272 424.6 796.71 424.912 797.274C425.224 797.826 425.38 798.468 425.38 799.2V805.5H423.022V799.758C423.022 799.326 422.938 798.954 422.77 798.642C422.602 798.33 422.368 798.09 422.068 797.922C421.78 797.742 421.438 797.652 421.042 797.652C420.658 797.652 420.316 797.742 420.016 797.922C419.716 798.09 419.482 798.33 419.314 798.642C419.146 798.954 419.062 799.326 419.062 799.758V805.5H416.704ZM431.766 809.46C431.034 809.46 430.356 809.34 429.732 809.1C429.108 808.86 428.568 808.524 428.112 808.092C427.668 807.672 427.344 807.174 427.14 806.598L429.336 805.77C429.48 806.226 429.762 806.592 430.182 806.868C430.614 807.156 431.142 807.3 431.766 807.3C432.246 807.3 432.666 807.21 433.026 807.03C433.398 806.85 433.686 806.586 433.89 806.238C434.094 805.902 434.196 805.494 434.196 805.014V802.782L434.646 803.322C434.31 803.91 433.86 804.354 433.296 804.654C432.732 804.954 432.09 805.104 431.37 805.104C430.458 805.104 429.642 804.894 428.922 804.474C428.202 804.054 427.638 803.478 427.23 802.746C426.822 802.014 426.618 801.192 426.618 800.28C426.618 799.356 426.822 798.534 427.23 797.814C427.638 797.094 428.196 796.53 428.904 796.122C429.612 795.702 430.416 795.492 431.316 795.492C432.048 795.492 432.69 795.648 433.242 795.96C433.806 796.26 434.274 796.698 434.646 797.274L434.322 797.868V795.708H436.554V805.014C436.554 805.866 436.344 806.628 435.924 807.3C435.516 807.972 434.952 808.5 434.232 808.884C433.524 809.268 432.702 809.46 431.766 809.46ZM431.658 802.926C432.162 802.926 432.6 802.818 432.972 802.602C433.356 802.374 433.656 802.062 433.872 801.666C434.088 801.27 434.196 800.814 434.196 800.298C434.196 799.794 434.082 799.344 433.854 798.948C433.638 798.54 433.338 798.222 432.954 797.994C432.582 797.766 432.15 797.652 431.658 797.652C431.166 797.652 430.722 797.766 430.326 797.994C429.93 798.222 429.618 798.54 429.39 798.948C429.174 799.344 429.066 799.794 429.066 800.298C429.066 800.802 429.174 801.252 429.39 801.648C429.618 802.044 429.924 802.356 430.308 802.584C430.704 802.812 431.154 802.926 431.658 802.926ZM442.122 805.716C441.078 805.716 440.166 805.47 439.386 804.978C438.618 804.474 438.09 803.796 437.802 802.944L439.566 802.098C439.818 802.65 440.166 803.082 440.61 803.394C441.066 803.706 441.57 803.862 442.122 803.862C442.554 803.862 442.896 803.766 443.148 803.574C443.4 803.382 443.526 803.13 443.526 802.818C443.526 802.626 443.472 802.47 443.364 802.35C443.268 802.218 443.13 802.11 442.95 802.026C442.782 801.93 442.596 801.852 442.392 801.792L440.79 801.342C439.962 801.102 439.332 800.736 438.9 800.244C438.48 799.752 438.27 799.17 438.27 798.498C438.27 797.898 438.42 797.376 438.72 796.932C439.032 796.476 439.458 796.122 439.998 795.87C440.55 795.618 441.18 795.492 441.888 795.492C442.812 795.492 443.628 795.714 444.336 796.158C445.044 796.602 445.548 797.226 445.848 798.03L444.048 798.876C443.88 798.432 443.598 798.078 443.202 797.814C442.806 797.55 442.362 797.418 441.87 797.418C441.474 797.418 441.162 797.508 440.934 797.688C440.706 797.868 440.592 798.102 440.592 798.39C440.592 798.57 440.64 798.726 440.736 798.858C440.832 798.99 440.964 799.098 441.132 799.182C441.312 799.266 441.516 799.344 441.744 799.416L443.31 799.884C444.114 800.124 444.732 800.484 445.164 800.964C445.608 801.444 445.83 802.032 445.83 802.728C445.83 803.316 445.674 803.838 445.362 804.294C445.05 804.738 444.618 805.086 444.066 805.338C443.514 805.59 442.866 805.716 442.122 805.716Z" fill="#040404"/>
<path d="M527.191 138.707C519.276 121.538 514.608 103.316 509.99 85H660C672.703 85 683 95.2975 683 108V230.807C660.366 228.71 637.861 226.548 617.215 219.71C596.255 212.769 577.181 200.965 561.935 186.833L561.934 186.832C546.658 172.705 535.244 156.254 527.192 138.709L527.191 138.707Z" fill="#FFB9EC" stroke="black" stroke-width="2"/>
</svg>
