<svg width="90" height="46" viewBox="0 0 90 46" fill="none" xmlns="http://www.w3.org/2000/svg">
<path d="M14.224 41.576C11.984 41.576 9.904 41.16 7.984 40.328C6.064 39.464 4.432 38.296 3.088 36.824C1.744 35.352 0.752 33.656 0.112 31.736L4.912 29.72C5.776 31.928 7.04 33.624 8.704 34.808C10.368 35.992 12.288 36.584 14.464 36.584C15.744 36.584 16.864 36.392 17.824 36.008C18.784 35.592 19.52 35.016 20.032 34.28C20.576 33.544 20.848 32.696 20.848 31.736C20.848 30.424 20.48 29.384 19.744 28.616C19.008 27.848 17.92 27.24 16.48 26.792L9.76 24.68C7.072 23.848 5.024 22.584 3.616 20.888C2.208 19.16 1.504 17.144 1.504 14.84C1.504 12.824 2 11.064 2.992 9.56C3.984 8.024 5.344 6.824 7.072 5.96C8.832 5.096 10.832 4.664 13.072 4.664C15.216 4.664 17.168 5.048 18.928 5.816C20.688 6.552 22.192 7.576 23.44 8.888C24.72 10.2 25.648 11.72 26.224 13.448L21.52 15.512C20.816 13.624 19.712 12.168 18.208 11.144C16.736 10.12 15.024 9.608 13.072 9.608C11.888 9.608 10.848 9.816 9.952 10.232C9.056 10.616 8.352 11.192 7.84 11.96C7.36 12.696 7.12 13.56 7.12 14.552C7.12 15.704 7.488 16.728 8.224 17.624C8.96 18.52 10.08 19.192 11.584 19.64L17.824 21.608C20.672 22.472 22.816 23.72 24.256 25.352C25.696 26.952 26.416 28.952 26.416 31.352C26.416 33.336 25.888 35.096 24.832 36.632C23.808 38.168 22.384 39.384 20.56 40.28C18.736 41.144 16.624 41.576 14.224 41.576ZM12.016 45.8V0.439999H15.856V45.8H12.016ZM45.3501 41.576C42.5021 41.576 40.0061 40.808 37.8621 39.272C35.7181 37.704 34.0381 35.544 32.8221 32.792C31.6381 30.008 31.0461 26.776 31.0461 23.096C31.0461 19.384 31.6381 16.152 32.8221 13.4C34.0381 10.648 35.7021 8.504 37.8141 6.968C39.9581 5.432 42.4541 4.664 45.3021 4.664C48.1501 4.664 50.6301 5.432 52.7421 6.968C54.8861 8.504 56.5501 10.664 57.7341 13.448C58.9501 16.2 59.5581 19.416 59.5581 23.096C59.5581 26.776 58.9661 30.008 57.7821 32.792C56.5981 35.544 54.9341 37.704 52.7901 39.272C50.6781 40.808 48.1981 41.576 45.3501 41.576ZM45.3501 36.392C47.1101 36.392 48.6301 35.848 49.9101 34.76C51.1901 33.672 52.1821 32.136 52.8861 30.152C53.5901 28.168 53.9421 25.816 53.9421 23.096C53.9421 20.376 53.5901 18.024 52.8861 16.04C52.1821 14.056 51.1901 12.52 49.9101 11.432C48.6301 10.344 47.0941 9.8 45.3021 9.8C43.5421 9.8 42.0221 10.344 40.7421 11.432C39.4621 12.52 38.4701 14.056 37.7661 16.04C37.0621 18.024 36.7101 20.376 36.7101 23.096C36.7101 25.784 37.0621 28.136 37.7661 30.152C38.4701 32.136 39.4621 33.672 40.7421 34.76C42.0541 35.848 43.5901 36.392 45.3501 36.392ZM67.0855 41V34.76H72.6055V41H67.0855ZM84.2399 41V10.04H77.3759V5.24H89.8559V41H84.2399Z" fill="#FFCE51"/>
</svg>
