<svg width="128" height="30" viewBox="0 0 128 30" fill="none" xmlns="http://www.w3.org/2000/svg">
<path d="M34.3519 12.9481C34.0898 9.97493 31.9119 4.59484 25.6707 1.9195C21.6815 8.15706e-05 14.698 1.08944 14.698 1.08944L14.6997 1.09606C14.6988 1.09482 14.6988 1.09358 14.698 1.09234C14.2515 1.16731 13.8083 1.26133 13.3771 1.37027C10.8617 -0.0939428 7.84335 -0.0976704 6.04861 0.0783661C5.26784 0.153337 4.806 0.987128 5.14772 1.69252L6.66784 4.80857C4.97872 6.28023 3.70215 8.08243 2.98516 10.0909L1.13036 10.083C0.506985 10.0793 0 10.5863 0 11.2093V15.3687C0 15.7895 0.233196 16.1718 0.604323 16.3669L3.01084 17.6215C4.01694 20.3955 6.10039 22.7763 8.84821 24.4161L9.54946 29.0428L13.2102 28.8551L15.1814 30L15.5832 26.6839C16.3122 26.7746 17.0515 26.8094 17.8095 26.8189C18.8935 26.8334 20.4604 26.6872 22.0654 26.4685L22.4544 29.0428L25.1053 28.2686L27.0769 29.4135C27.0769 29.4135 28.2888 26.7543 29.2142 24.6916C33.7435 22.0191 34.7289 17.2276 34.3519 12.9481ZM9.0636 12.0476C8.12833 12.0476 7.37406 11.2921 7.37406 10.3576C7.37406 9.42279 8.12833 8.66811 9.0636 8.66811C9.99804 8.66811 10.7527 9.42238 10.7527 10.3576C10.7527 11.2925 9.99804 12.0476 9.0636 12.0476ZM16.3018 3.812V3.8091C16.2144 3.4446 16.4319 3.08341 16.7798 2.97779C19.8379 2.41282 22.6246 3.2611 23.352 3.51294C23.6212 3.61235 23.8842 3.72087 24.1389 3.84057C24.5097 4.01413 24.6517 4.46809 24.4463 4.82224C24.2665 5.13579 23.8726 5.26005 23.5466 5.10472C21.0672 3.93336 18.2995 4.15413 17.0842 4.3372C16.728 4.38981 16.3859 4.16283 16.3018 3.812ZM29.1943 7.40355C28.8153 8.10231 28.1116 8.56042 26.9626 8.68261L26.9824 8.93528C27.885 8.83711 28.5929 8.55131 29.039 8.10438C29.0709 8.49332 29.1815 9.68043 28.2901 10.4836C27.569 11.1343 26.3761 11.3998 24.8128 11.0038L24.7416 11.2465C25.341 11.3969 25.8807 11.4731 26.3628 11.4731C26.7695 11.4731 27.1345 11.418 27.4567 11.3095C27.4493 11.6023 27.499 12.5177 26.6585 13.1452C25.942 13.6783 24.7897 13.8018 23.3851 13.3366L23.3031 13.5744C23.9658 13.7947 24.5581 13.9061 25.0767 13.9061C25.167 13.9061 25.254 13.8999 25.3414 13.8933C25.1637 14.2549 24.1012 16.171 21.4723 15.8591C21.4342 15.8562 17.6906 15.6665 16.8825 12.5359C16.8436 12.3554 16.7711 11.85 16.9107 11.6798C16.9405 11.6429 16.9778 11.6247 17.0258 11.6239C17.0809 11.64 17.3609 11.7121 17.7474 11.5265C18.222 11.2979 18.9125 10.6451 19.5152 8.82344C19.5185 8.79942 19.859 6.56893 23.6175 6.90941C23.6547 6.91562 27.243 7.42261 29.0597 4.4362C29.2374 4.82596 29.8371 6.21769 29.1943 7.40355Z" fill="#040404"/>
<path d="M50.5092 22.716C49.6572 22.716 48.8652 22.56 48.1332 22.248C47.4132 21.936 46.7892 21.504 46.2612 20.952C45.7452 20.388 45.3672 19.734 45.1272 18.99L47.1612 18.108C47.4852 18.876 47.9532 19.482 48.5652 19.926C49.1772 20.358 49.8672 20.574 50.6352 20.574C51.0672 20.574 51.4392 20.508 51.7512 20.376C52.0752 20.232 52.3212 20.04 52.4892 19.8C52.6692 19.56 52.7592 19.272 52.7592 18.936C52.7592 18.54 52.6392 18.216 52.3992 17.964C52.1712 17.7 51.8232 17.496 51.3552 17.352L48.7812 16.524C47.7372 16.2 46.9512 15.714 46.4232 15.066C45.8952 14.418 45.6312 13.656 45.6312 12.78C45.6312 12.012 45.8172 11.334 46.1892 10.746C46.5732 10.158 47.1012 9.702 47.7732 9.378C48.4572 9.042 49.2372 8.874 50.1132 8.874C50.9172 8.874 51.6552 9.018 52.3272 9.306C52.9992 9.582 53.5752 9.972 54.0552 10.476C54.5472 10.968 54.9132 11.55 55.1532 12.222L53.1372 13.122C52.8732 12.45 52.4772 11.934 51.9492 11.574C51.4212 11.202 50.8092 11.016 50.1132 11.016C49.7052 11.016 49.3452 11.088 49.0332 11.232C48.7212 11.364 48.4752 11.556 48.2952 11.808C48.1272 12.048 48.0432 12.336 48.0432 12.672C48.0432 13.044 48.1632 13.374 48.4032 13.662C48.6432 13.938 49.0092 14.154 49.5012 14.31L51.9672 15.084C53.0352 15.432 53.8332 15.912 54.3612 16.524C54.9012 17.136 55.1712 17.892 55.1712 18.792C55.1712 19.56 54.9732 20.238 54.5772 20.826C54.1812 21.414 53.6352 21.876 52.9392 22.212C52.2432 22.548 51.4332 22.716 50.5092 22.716ZM59.6996 22.716C59.0156 22.716 58.4216 22.602 57.9176 22.374C57.4136 22.146 57.0236 21.822 56.7476 21.402C56.4716 20.97 56.3336 20.472 56.3336 19.908C56.3336 19.368 56.4536 18.888 56.6936 18.468C56.9336 18.036 57.3056 17.676 57.8096 17.388C58.3136 17.1 58.9496 16.896 59.7176 16.776L62.9216 16.254V18.054L60.1676 18.522C59.6996 18.606 59.3516 18.756 59.1236 18.972C58.8956 19.188 58.7816 19.47 58.7816 19.818C58.7816 20.154 58.9076 20.424 59.1596 20.628C59.4236 20.82 59.7476 20.916 60.1316 20.916C60.6236 20.916 61.0556 20.814 61.4276 20.61C61.8116 20.394 62.1056 20.1 62.3096 19.728C62.5256 19.356 62.6336 18.948 62.6336 18.504V15.984C62.6336 15.564 62.4656 15.216 62.1296 14.94C61.8056 14.652 61.3736 14.508 60.8336 14.508C60.3296 14.508 59.8796 14.646 59.4836 14.922C59.0996 15.186 58.8176 15.54 58.6376 15.984L56.7116 15.048C56.9036 14.532 57.2036 14.088 57.6116 13.716C58.0316 13.332 58.5236 13.032 59.0876 12.816C59.6516 12.6 60.2636 12.492 60.9236 12.492C61.7276 12.492 62.4356 12.642 63.0476 12.942C63.6596 13.23 64.1336 13.638 64.4696 14.166C64.8176 14.682 64.9916 15.288 64.9916 15.984V22.5H62.7596V20.826L63.2636 20.79C63.0116 21.21 62.7116 21.564 62.3636 21.852C62.0156 22.128 61.6196 22.344 61.1756 22.5C60.7316 22.644 60.2396 22.716 59.6996 22.716ZM67.999 26.478C67.735 26.478 67.477 26.454 67.225 26.406C66.973 26.37 66.745 26.304 66.541 26.208V24.228C66.697 24.264 66.883 24.3 67.099 24.336C67.327 24.372 67.537 24.39 67.729 24.39C68.269 24.39 68.659 24.264 68.899 24.012C69.151 23.76 69.373 23.43 69.565 23.022L70.213 21.51L70.177 23.49L65.911 12.708H68.449L71.437 20.664H70.537L73.507 12.708H76.063L71.797 23.49C71.545 24.126 71.239 24.666 70.879 25.11C70.519 25.554 70.099 25.89 69.619 26.118C69.151 26.358 68.611 26.478 67.999 26.478ZM79.4639 22.5L76.0979 12.708H78.5819L81.0479 20.142L80.1839 20.124L82.8119 12.708H84.8999L87.5099 20.124L86.6459 20.142L89.1119 12.708H91.5959L88.2299 22.5H86.1239L83.4599 14.742H84.2519L81.5519 22.5H79.4639ZM92.5285 22.5V12.708H94.8865V22.5H92.5285ZM92.5285 11.61V9.09H94.8865V11.61H92.5285ZM96.7036 22.5V12.708H98.9176V14.634L98.7376 14.292C98.9656 13.704 99.3376 13.26 99.8536 12.96C100.382 12.648 100.994 12.492 101.69 12.492C102.41 12.492 103.046 12.648 103.598 12.96C104.162 13.272 104.6 13.71 104.912 14.274C105.224 14.826 105.38 15.468 105.38 16.2V22.5H103.022V16.758C103.022 16.326 102.938 15.954 102.77 15.642C102.602 15.33 102.368 15.09 102.068 14.922C101.78 14.742 101.438 14.652 101.042 14.652C100.658 14.652 100.316 14.742 100.016 14.922C99.7156 15.09 99.4816 15.33 99.3136 15.642C99.1456 15.954 99.0616 16.326 99.0616 16.758V22.5H96.7036ZM111.766 26.46C111.034 26.46 110.356 26.34 109.732 26.1C109.108 25.86 108.568 25.524 108.112 25.092C107.668 24.672 107.344 24.174 107.14 23.598L109.336 22.77C109.48 23.226 109.762 23.592 110.182 23.868C110.614 24.156 111.142 24.3 111.766 24.3C112.246 24.3 112.666 24.21 113.026 24.03C113.398 23.85 113.686 23.586 113.89 23.238C114.094 22.902 114.196 22.494 114.196 22.014V19.782L114.646 20.322C114.31 20.91 113.86 21.354 113.296 21.654C112.732 21.954 112.09 22.104 111.37 22.104C110.458 22.104 109.642 21.894 108.922 21.474C108.202 21.054 107.638 20.478 107.23 19.746C106.822 19.014 106.618 18.192 106.618 17.28C106.618 16.356 106.822 15.534 107.23 14.814C107.638 14.094 108.196 13.53 108.904 13.122C109.612 12.702 110.416 12.492 111.316 12.492C112.048 12.492 112.69 12.648 113.242 12.96C113.806 13.26 114.274 13.698 114.646 14.274L114.322 14.868V12.708H116.554V22.014C116.554 22.866 116.344 23.628 115.924 24.3C115.516 24.972 114.952 25.5 114.232 25.884C113.524 26.268 112.702 26.46 111.766 26.46ZM111.658 19.926C112.162 19.926 112.6 19.818 112.972 19.602C113.356 19.374 113.656 19.062 113.872 18.666C114.088 18.27 114.196 17.814 114.196 17.298C114.196 16.794 114.082 16.344 113.854 15.948C113.638 15.54 113.338 15.222 112.954 14.994C112.582 14.766 112.15 14.652 111.658 14.652C111.166 14.652 110.722 14.766 110.326 14.994C109.93 15.222 109.618 15.54 109.39 15.948C109.174 16.344 109.066 16.794 109.066 17.298C109.066 17.802 109.174 18.252 109.39 18.648C109.618 19.044 109.924 19.356 110.308 19.584C110.704 19.812 111.154 19.926 111.658 19.926ZM122.122 22.716C121.078 22.716 120.166 22.47 119.386 21.978C118.618 21.474 118.09 20.796 117.802 19.944L119.566 19.098C119.818 19.65 120.166 20.082 120.61 20.394C121.066 20.706 121.57 20.862 122.122 20.862C122.554 20.862 122.896 20.766 123.148 20.574C123.4 20.382 123.526 20.13 123.526 19.818C123.526 19.626 123.472 19.47 123.364 19.35C123.268 19.218 123.13 19.11 122.95 19.026C122.782 18.93 122.596 18.852 122.392 18.792L120.79 18.342C119.962 18.102 119.332 17.736 118.9 17.244C118.48 16.752 118.27 16.17 118.27 15.498C118.27 14.898 118.42 14.376 118.72 13.932C119.032 13.476 119.458 13.122 119.998 12.87C120.55 12.618 121.18 12.492 121.888 12.492C122.812 12.492 123.628 12.714 124.336 13.158C125.044 13.602 125.548 14.226 125.848 15.03L124.048 15.876C123.88 15.432 123.598 15.078 123.202 14.814C122.806 14.55 122.362 14.418 121.87 14.418C121.474 14.418 121.162 14.508 120.934 14.688C120.706 14.868 120.592 15.102 120.592 15.39C120.592 15.57 120.64 15.726 120.736 15.858C120.832 15.99 120.964 16.098 121.132 16.182C121.312 16.266 121.516 16.344 121.744 16.416L123.31 16.884C124.114 17.124 124.732 17.484 125.164 17.964C125.608 18.444 125.83 19.032 125.83 19.728C125.83 20.316 125.674 20.838 125.362 21.294C125.05 21.738 124.618 22.086 124.066 22.338C123.514 22.59 122.866 22.716 122.122 22.716Z" fill="#040404"/>
</svg>
